<svg width="1920" height="1080" viewBox="0 0 1920 1080" fill="none" xmlns="http://www.w3.org/2000/svg">
<rect y="224" width="1920" height="1" fill="#D9D9D9"/>
<rect y="159" width="1920" height="1" fill="#D9D9D9"/>
<rect y="94" width="1920" height="1" fill="#D9D9D9"/>
<rect y="29" width="1920" height="1" fill="#D9D9D9"/>
<rect y="289" width="1920" height="1" fill="#D9D9D9"/>
<rect y="354" width="1920" height="1" fill="#D9D9D9"/>
<rect y="419" width="1920" height="1" fill="#D9D9D9"/>
<rect y="485" width="1920" height="1" fill="#D9D9D9"/>
<rect y="746" width="1920" height="1" fill="#D9D9D9"/>
<rect y="681" width="1920" height="1" fill="#D9D9D9"/>
<rect y="616" width="1920" height="1" fill="#D9D9D9"/>
<rect y="551" width="1920" height="1" fill="#D9D9D9"/>
<rect y="811" width="1920" height="1" fill="#D9D9D9"/>
<rect y="876" width="1920" height="1" fill="#D9D9D9"/>
<rect y="941" width="1920" height="1" fill="#D9D9D9"/>
<rect y="1007" width="1920" height="1" fill="#D9D9D9"/>
<rect y="1073" width="1920" height="1" fill="#D9D9D9"/>
<rect x="781" y="1080" width="1080" height="1.00003" transform="rotate(-90 781 1080)" fill="#D9D9D9"/>
<rect x="716" y="1080" width="1080" height="1.00003" transform="rotate(-90 716 1080)" fill="#D9D9D9"/>
<rect x="651" y="1080" width="1080" height="1.00004" transform="rotate(-90 651 1080)" fill="#D9D9D9"/>
<rect x="586" y="1080" width="1080" height="1.00004" transform="rotate(-90 586 1080)" fill="#D9D9D9"/>
<rect x="846" y="1080" width="1080" height="1.00003" transform="rotate(-90 846 1080)" fill="#D9D9D9"/>
<rect x="911" y="1080" width="1080" height="1.00003" transform="rotate(-90 911 1080)" fill="#D9D9D9"/>
<rect x="977" y="1080" width="1080" height="1.00003" transform="rotate(-90 977 1080)" fill="#D9D9D9"/>
<rect x="1042" y="1080" width="1080" height="1.00003" transform="rotate(-90 1042 1080)" fill="#D9D9D9"/>
<rect x="390" y="1080" width="1080" height="1.00003" transform="rotate(-90 390 1080)" fill="#D9D9D9"/>
<rect x="325" y="1080" width="1080" height="1.00003" transform="rotate(-90 325 1080)" fill="#D9D9D9"/>
<rect x="260" y="1080" width="1080" height="1.00004" transform="rotate(-90 260 1080)" fill="#D9D9D9"/>
<rect x="195" y="1080" width="1080" height="1.00004" transform="rotate(-90 195 1080)" fill="#D9D9D9"/>
<rect x="129" y="1080" width="1080" height="1.00004" transform="rotate(-90 129 1080)" fill="#D9D9D9"/>
<rect x="63" y="1080" width="1080" height="1.00004" transform="rotate(-90 63 1080)" fill="#D9D9D9"/>
<rect x="65" y="1080" width="1080" height="3.57793e-05" transform="rotate(-90 65 1080)" fill="#D9D9D9"/>
<rect x="455" y="1080" width="1080" height="1.00003" transform="rotate(-90 455 1080)" fill="#D9D9D9"/>
<rect x="520" y="1080" width="1080" height="1.00003" transform="rotate(-90 520 1080)" fill="#D9D9D9"/>
<rect x="1693" y="1080" width="1080" height="1.00003" transform="rotate(-90 1693 1080)" fill="#D9D9D9"/>
<rect x="1628" y="1080" width="1080" height="1.00003" transform="rotate(-90 1628 1080)" fill="#D9D9D9"/>
<rect x="1563" y="1080" width="1080" height="1.00004" transform="rotate(-90 1563 1080)" fill="#D9D9D9"/>
<rect x="1498" y="1080" width="1080" height="1.00004" transform="rotate(-90 1498 1080)" fill="#D9D9D9"/>
<rect x="1758" y="1080" width="1080" height="1.00003" transform="rotate(-90 1758 1080)" fill="#D9D9D9"/>
<rect x="1823" y="1080" width="1080" height="1.00003" transform="rotate(-90 1823 1080)" fill="#D9D9D9"/>
<rect x="1889" y="1080" width="1080" height="1.00003" transform="rotate(-90 1889 1080)" fill="#D9D9D9"/>
<rect x="1302" y="1080" width="1080" height="1.00003" transform="rotate(-90 1302 1080)" fill="#D9D9D9"/>
<rect x="1237" y="1080" width="1080" height="1.00003" transform="rotate(-90 1237 1080)" fill="#D9D9D9"/>
<rect x="1172" y="1080" width="1080" height="1.00004" transform="rotate(-90 1172 1080)" fill="#D9D9D9"/>
<rect x="1107" y="1080" width="1080" height="1.00004" transform="rotate(-90 1107 1080)" fill="#D9D9D9"/>
<rect x="977" y="1080" width="1080" height="3.57793e-05" transform="rotate(-90 977 1080)" fill="#D9D9D9"/>
<rect x="1367" y="1080" width="1080" height="1.00003" transform="rotate(-90 1367 1080)" fill="#D9D9D9"/>
<rect x="1432" y="1080" width="1080" height="1.00003" transform="rotate(-90 1432 1080)" fill="#D9D9D9"/>
</svg>
