<svg width="42" height="42" viewBox="0 0 42 42" fill="none" xmlns="http://www.w3.org/2000/svg">
<path stroke-width="0.05" d="M17.5919 16.0612C17.8558 15.8788 18.1351 15.7169 18.4274 15.5779L19.9412 7L21 1L22.0588 7L23.5726 15.5779C23.8649 15.7169 24.1442 15.8788 24.4081 16.0612M17.5919 16.0612C16.9939 16.4747 16.4747 16.9939 16.0612 17.5919M17.5919 16.0612L13 13L16.0612 17.5919M16.0612 17.5919C15.8788 17.8558 15.7169 18.1351 15.5779 18.4274L7 19.9412L1 21L7 22.0588L15.5779 23.5726C15.7169 23.8649 15.8788 24.1442 16.0612 24.4081M16.0612 24.4081C16.4747 25.0061 16.9939 25.5253 17.5919 25.9388M16.0612 24.4081L13 29L17.5919 25.9388M17.5919 25.9388C17.8558 26.1212 18.1351 26.2831 18.4274 26.4221L19.9412 35L21 41L22.0588 35L23.5726 26.4221C23.8649 26.2831 24.1442 26.1212 24.4081 25.9388M24.4081 25.9388C25.0061 25.5253 25.5253 25.0061 25.9388 24.4081M24.4081 25.9388L29 29L25.9388 24.4081M25.9388 24.4081C26.1212 24.1442 26.2831 23.8649 26.4221 23.5726L35 22.0588L41 21L35 19.9412L26.4221 18.4274C26.2831 18.1351 26.1212 17.8558 25.9388 17.5919M25.9388 17.5919C25.5253 16.9939 25.0061 16.4747 24.4081 16.0612M25.9388 17.5919L29 13L24.4081 16.0612M7 18L9 9L18 7M7 24L9 33L18 35M24 35L33 33L35 24M35 18L33 9L24 7" stroke="white"/>
</svg>
