<svg width="1145" height="191" viewBox="0 0 1145 191" fill="none" xmlns="http://www.w3.org/2000/svg">
<path d="M0 17.3594V190.996H69.3939V156.268H34.697V52.0866L69.3939 17.3636L0 17.3594Z" fill="white"/>
<path d="M173.485 190.996H138.788V52.0866L104.091 86.8139L52.0455 86.8182L138.788 0H173.485V190.996Z" fill="white"/>
<path d="M312.273 191V52.0909H346.97V191H312.273Z" fill="white"/>
<path fill-rule="evenodd" clip-rule="evenodd" d="M277.576 52.0909C315.901 52.0909 346.97 83.1868 346.97 121.545C346.97 159.904 315.901 191 277.576 191C239.251 191 208.182 159.904 208.182 121.545H242.879C242.879 140.725 258.413 156.273 277.576 156.273C296.738 156.273 312.273 140.725 312.273 121.545C312.273 102.366 296.738 86.8182 277.576 86.8182V52.0909Z" fill="white"/>
<path d="M381.667 138.909V0H416.364V34.7273H485.758V69.4545H416.364V138.909H381.667Z" fill="white"/>
<path d="M451.061 191V104.182H485.758V191H451.061Z" fill="white"/>
<path d="M520.455 191V104.182H555.151V191H520.455Z" fill="white"/>
<path d="M555.151 34.7273H520.455V69.4545H555.151V34.7273Z" fill="white"/>
<path d="M589.849 78.1364L615.871 52.0909L659.242 95.5L702.614 52.0909L728.636 78.1364L685.265 121.545L728.636 164.955L702.614 191L589.849 78.1364Z" fill="white"/>
<path d="M902.121 34.7273V0H971.515V191H936.818V34.7273H902.121Z" fill="white"/>
<path fill-rule="evenodd" clip-rule="evenodd" d="M1145 121.545C1145 83.1868 1113.93 52.0909 1075.61 52.0909C1037.28 52.0909 1006.21 83.1868 1006.21 121.545C1006.21 159.904 1037.28 191 1075.61 191C1113.93 191 1145 159.904 1145 121.545ZM1075.61 156.273C1056.44 156.273 1040.91 140.708 1040.91 121.545C1040.91 102.383 1056.44 86.8182 1075.61 86.8182C1094.77 86.8182 1110.3 102.383 1110.3 121.545C1110.3 140.708 1094.77 156.273 1075.61 156.273Z" fill="white"/>
<path d="M867.424 191H763.333V156.273H832.727V112.864H763.333V78.1364H867.424V191Z" fill="white"/>
<path d="M832.727 52.0909H867.424V0H763.333V34.7273H832.727V52.0909Z" fill="white"/>
</svg>
